<mxfile host="app.diagrams.net" agent="Mozilla/5.0 (Windows NT 10.0; Win64; x64; rv:136.0) Gecko/20100101 Firefox/136.0" version="26.0.16">
  <diagram name="Page-1" id="siQNdskoHCBM4W4Xq2PB">
    <mxGraphModel dx="2935" dy="624" grid="1" gridSize="10" guides="1" tooltips="1" connect="1" arrows="1" fold="1" page="1" pageScale="1" pageWidth="850" pageHeight="1100" math="0" shadow="0">
      <root>
        <mxCell id="0" />
        <mxCell id="1" parent="0" />
        <mxCell id="VBBpCYfYI4_U15LN8l5O-1" value="&lt;p style=&quot;margin:0px;margin-top:4px;text-align:center;&quot;&gt;&lt;i&gt;&amp;lt;&amp;lt;Interface&amp;gt;&amp;gt;&lt;/i&gt;&lt;br&gt;&lt;b&gt;ISubscripiton&lt;/b&gt;&lt;/p&gt;&lt;hr size=&quot;1&quot;&gt;&lt;p style=&quot;margin:0px;margin-left:4px;&quot;&gt;+ Price: decimal { get; }&lt;br&gt;+ MinDuration: int { get; }&lt;/p&gt;&lt;p style=&quot;margin:0px;margin-left:4px;&quot;&gt;+ Channels: List&amp;lt;string&amp;gt; { get; }&lt;/p&gt;&lt;p style=&quot;margin:0px;margin-left:4px;&quot;&gt;+ Features: List&amp;lt;string&amp;gt; { get; }&lt;/p&gt;&lt;hr size=&quot;1&quot;&gt;&lt;p style=&quot;margin:0px;margin-left:4px;&quot;&gt;+ GetInfo(): string&lt;/p&gt;" style="verticalAlign=top;align=left;overflow=fill;fontSize=12;fontFamily=Helvetica;html=1;" vertex="1" parent="1">
          <mxGeometry x="289" y="80" width="272" height="140" as="geometry" />
        </mxCell>
        <mxCell id="VBBpCYfYI4_U15LN8l5O-3" value="Factory Method" style="text;html=1;align=center;verticalAlign=middle;resizable=0;points=[];autosize=1;strokeColor=none;fillColor=none;fontSize=16;" vertex="1" parent="1">
          <mxGeometry x="-90" y="30" width="130" height="30" as="geometry" />
        </mxCell>
        <mxCell id="VBBpCYfYI4_U15LN8l5O-16" style="edgeStyle=orthogonalEdgeStyle;rounded=0;orthogonalLoop=1;jettySize=auto;html=1;exitX=0.5;exitY=0;exitDx=0;exitDy=0;entryX=0.5;entryY=1;entryDx=0;entryDy=0;dashed=1;endArrow=block;endFill=0;" edge="1" parent="1" source="VBBpCYfYI4_U15LN8l5O-4" target="VBBpCYfYI4_U15LN8l5O-1">
          <mxGeometry relative="1" as="geometry" />
        </mxCell>
        <mxCell id="VBBpCYfYI4_U15LN8l5O-4" value="DomesticSubscription" style="swimlane;fontStyle=1;align=center;verticalAlign=top;childLayout=stackLayout;horizontal=1;startSize=26;horizontalStack=0;resizeParent=1;resizeParentMax=0;resizeLast=0;collapsible=1;marginBottom=0;fontSize=12;" vertex="1" parent="1">
          <mxGeometry y="300" width="270" height="130" as="geometry">
            <mxRectangle x="-60" y="370" width="140" height="30" as="alternateBounds" />
          </mxGeometry>
        </mxCell>
        <mxCell id="VBBpCYfYI4_U15LN8l5O-5" value="+ Price: decimal { get; }&#xa;+ MinDuration: int { get; }&#xa;+ Channels: List&lt;string&gt; { get; }&#xa;+ Features: List&lt;string&gt; { get; }" style="text;strokeColor=none;fillColor=none;align=left;verticalAlign=top;spacingLeft=4;spacingRight=4;overflow=hidden;rotatable=0;points=[[0,0.5],[1,0.5]];portConstraint=eastwest;fontSize=12;" vertex="1" parent="VBBpCYfYI4_U15LN8l5O-4">
          <mxGeometry y="26" width="270" height="64" as="geometry" />
        </mxCell>
        <mxCell id="VBBpCYfYI4_U15LN8l5O-6" value="" style="line;strokeWidth=1;fillColor=none;align=left;verticalAlign=middle;spacingTop=-1;spacingLeft=3;spacingRight=3;rotatable=0;labelPosition=right;points=[];portConstraint=eastwest;strokeColor=inherit;fontSize=16;" vertex="1" parent="VBBpCYfYI4_U15LN8l5O-4">
          <mxGeometry y="90" width="270" height="8" as="geometry" />
        </mxCell>
        <mxCell id="VBBpCYfYI4_U15LN8l5O-7" value="+ GetInfo(): string" style="text;strokeColor=none;fillColor=none;align=left;verticalAlign=top;spacingLeft=4;spacingRight=4;overflow=hidden;rotatable=0;points=[[0,0.5],[1,0.5]];portConstraint=eastwest;fontSize=12;" vertex="1" parent="VBBpCYfYI4_U15LN8l5O-4">
          <mxGeometry y="98" width="270" height="32" as="geometry" />
        </mxCell>
        <mxCell id="VBBpCYfYI4_U15LN8l5O-17" style="edgeStyle=orthogonalEdgeStyle;rounded=0;orthogonalLoop=1;jettySize=auto;html=1;exitX=0.5;exitY=0;exitDx=0;exitDy=0;entryX=0.5;entryY=1;entryDx=0;entryDy=0;dashed=1;endArrow=block;endFill=0;" edge="1" parent="1" source="VBBpCYfYI4_U15LN8l5O-8" target="VBBpCYfYI4_U15LN8l5O-1">
          <mxGeometry relative="1" as="geometry" />
        </mxCell>
        <mxCell id="VBBpCYfYI4_U15LN8l5O-8" value="EducationalSubscription" style="swimlane;fontStyle=1;align=center;verticalAlign=top;childLayout=stackLayout;horizontal=1;startSize=26;horizontalStack=0;resizeParent=1;resizeParentMax=0;resizeLast=0;collapsible=1;marginBottom=0;fontSize=12;" vertex="1" parent="1">
          <mxGeometry x="290" y="300" width="270" height="130" as="geometry">
            <mxRectangle x="-60" y="370" width="140" height="30" as="alternateBounds" />
          </mxGeometry>
        </mxCell>
        <mxCell id="VBBpCYfYI4_U15LN8l5O-9" value="+ Price: decimal { get; }&#xa;+ MinDuration: int { get; }&#xa;+ Channels: List&lt;string&gt; { get; }&#xa;+ Features: List&lt;string&gt; { get; }" style="text;strokeColor=none;fillColor=none;align=left;verticalAlign=top;spacingLeft=4;spacingRight=4;overflow=hidden;rotatable=0;points=[[0,0.5],[1,0.5]];portConstraint=eastwest;fontSize=12;" vertex="1" parent="VBBpCYfYI4_U15LN8l5O-8">
          <mxGeometry y="26" width="270" height="64" as="geometry" />
        </mxCell>
        <mxCell id="VBBpCYfYI4_U15LN8l5O-10" value="" style="line;strokeWidth=1;fillColor=none;align=left;verticalAlign=middle;spacingTop=-1;spacingLeft=3;spacingRight=3;rotatable=0;labelPosition=right;points=[];portConstraint=eastwest;strokeColor=inherit;fontSize=16;" vertex="1" parent="VBBpCYfYI4_U15LN8l5O-8">
          <mxGeometry y="90" width="270" height="8" as="geometry" />
        </mxCell>
        <mxCell id="VBBpCYfYI4_U15LN8l5O-11" value="+ GetInfo(): string" style="text;strokeColor=none;fillColor=none;align=left;verticalAlign=top;spacingLeft=4;spacingRight=4;overflow=hidden;rotatable=0;points=[[0,0.5],[1,0.5]];portConstraint=eastwest;fontSize=12;" vertex="1" parent="VBBpCYfYI4_U15LN8l5O-8">
          <mxGeometry y="98" width="270" height="32" as="geometry" />
        </mxCell>
        <mxCell id="VBBpCYfYI4_U15LN8l5O-18" style="edgeStyle=orthogonalEdgeStyle;rounded=0;orthogonalLoop=1;jettySize=auto;html=1;exitX=0.5;exitY=0;exitDx=0;exitDy=0;entryX=0.5;entryY=1;entryDx=0;entryDy=0;dashed=1;endArrow=block;endFill=0;" edge="1" parent="1" source="VBBpCYfYI4_U15LN8l5O-12" target="VBBpCYfYI4_U15LN8l5O-1">
          <mxGeometry relative="1" as="geometry" />
        </mxCell>
        <mxCell id="VBBpCYfYI4_U15LN8l5O-12" value="PremiumSubscription" style="swimlane;fontStyle=1;align=center;verticalAlign=top;childLayout=stackLayout;horizontal=1;startSize=26;horizontalStack=0;resizeParent=1;resizeParentMax=0;resizeLast=0;collapsible=1;marginBottom=0;fontSize=12;" vertex="1" parent="1">
          <mxGeometry x="580" y="300" width="270" height="130" as="geometry">
            <mxRectangle x="-60" y="370" width="140" height="30" as="alternateBounds" />
          </mxGeometry>
        </mxCell>
        <mxCell id="VBBpCYfYI4_U15LN8l5O-13" value="+ Price: decimal { get; }&#xa;+ MinDuration: int { get; }&#xa;+ Channels: List&lt;string&gt; { get; }&#xa;+ Features: List&lt;string&gt; { get; }" style="text;strokeColor=none;fillColor=none;align=left;verticalAlign=top;spacingLeft=4;spacingRight=4;overflow=hidden;rotatable=0;points=[[0,0.5],[1,0.5]];portConstraint=eastwest;fontSize=12;" vertex="1" parent="VBBpCYfYI4_U15LN8l5O-12">
          <mxGeometry y="26" width="270" height="64" as="geometry" />
        </mxCell>
        <mxCell id="VBBpCYfYI4_U15LN8l5O-14" value="" style="line;strokeWidth=1;fillColor=none;align=left;verticalAlign=middle;spacingTop=-1;spacingLeft=3;spacingRight=3;rotatable=0;labelPosition=right;points=[];portConstraint=eastwest;strokeColor=inherit;fontSize=16;" vertex="1" parent="VBBpCYfYI4_U15LN8l5O-12">
          <mxGeometry y="90" width="270" height="8" as="geometry" />
        </mxCell>
        <mxCell id="VBBpCYfYI4_U15LN8l5O-15" value="+ GetInfo(): string" style="text;strokeColor=none;fillColor=none;align=left;verticalAlign=top;spacingLeft=4;spacingRight=4;overflow=hidden;rotatable=0;points=[[0,0.5],[1,0.5]];portConstraint=eastwest;fontSize=12;" vertex="1" parent="VBBpCYfYI4_U15LN8l5O-12">
          <mxGeometry y="98" width="270" height="32" as="geometry" />
        </mxCell>
        <mxCell id="VBBpCYfYI4_U15LN8l5O-38" style="edgeStyle=orthogonalEdgeStyle;rounded=0;orthogonalLoop=1;jettySize=auto;html=1;exitX=1;exitY=0.5;exitDx=0;exitDy=0;entryX=0;entryY=0.5;entryDx=0;entryDy=0;endArrow=open;endFill=0;dashed=1;" edge="1" parent="1" source="VBBpCYfYI4_U15LN8l5O-19" target="VBBpCYfYI4_U15LN8l5O-1">
          <mxGeometry relative="1" as="geometry" />
        </mxCell>
        <mxCell id="VBBpCYfYI4_U15LN8l5O-19" value="SubscriptionCreator" style="swimlane;fontStyle=3;align=center;verticalAlign=top;childLayout=stackLayout;horizontal=1;startSize=26;horizontalStack=0;resizeParent=1;resizeParentMax=0;resizeLast=0;collapsible=1;marginBottom=0;fontSize=12;" vertex="1" parent="1">
          <mxGeometry x="-601" y="106" width="270" height="90" as="geometry">
            <mxRectangle x="-60" y="370" width="140" height="30" as="alternateBounds" />
          </mxGeometry>
        </mxCell>
        <mxCell id="VBBpCYfYI4_U15LN8l5O-21" value="" style="line;strokeWidth=1;fillColor=none;align=left;verticalAlign=middle;spacingTop=-1;spacingLeft=3;spacingRight=3;rotatable=0;labelPosition=right;points=[];portConstraint=eastwest;strokeColor=inherit;fontSize=16;" vertex="1" parent="VBBpCYfYI4_U15LN8l5O-19">
          <mxGeometry y="26" width="270" height="8" as="geometry" />
        </mxCell>
        <mxCell id="VBBpCYfYI4_U15LN8l5O-22" value="+ CreateDomesticSubscription(): ISubscribtion&#xa;+ CreateEducationalSubscription(): ISubscribtion&#xa;+ CreatePremiumSubscription(): ISubscribtion&#xa;&#xa;&#xa;" style="text;strokeColor=none;fillColor=none;align=left;verticalAlign=top;spacingLeft=4;spacingRight=4;overflow=hidden;rotatable=0;points=[[0,0.5],[1,0.5]];portConstraint=eastwest;fontSize=12;fontStyle=2" vertex="1" parent="VBBpCYfYI4_U15LN8l5O-19">
          <mxGeometry y="34" width="270" height="56" as="geometry" />
        </mxCell>
        <mxCell id="VBBpCYfYI4_U15LN8l5O-29" style="edgeStyle=orthogonalEdgeStyle;rounded=0;orthogonalLoop=1;jettySize=auto;html=1;exitX=0.5;exitY=0;exitDx=0;exitDy=0;endArrow=block;endFill=0;" edge="1" parent="1" source="VBBpCYfYI4_U15LN8l5O-23" target="VBBpCYfYI4_U15LN8l5O-19">
          <mxGeometry relative="1" as="geometry" />
        </mxCell>
        <mxCell id="VBBpCYfYI4_U15LN8l5O-23" value="WebSite" style="swimlane;fontStyle=1;align=center;verticalAlign=top;childLayout=stackLayout;horizontal=1;startSize=26;horizontalStack=0;resizeParent=1;resizeParentMax=0;resizeLast=0;collapsible=1;marginBottom=0;fontSize=12;" vertex="1" parent="1">
          <mxGeometry x="-891" y="276" width="270" height="90" as="geometry">
            <mxRectangle x="-60" y="370" width="140" height="30" as="alternateBounds" />
          </mxGeometry>
        </mxCell>
        <mxCell id="VBBpCYfYI4_U15LN8l5O-24" value="" style="line;strokeWidth=1;fillColor=none;align=left;verticalAlign=middle;spacingTop=-1;spacingLeft=3;spacingRight=3;rotatable=0;labelPosition=right;points=[];portConstraint=eastwest;strokeColor=inherit;fontSize=16;" vertex="1" parent="VBBpCYfYI4_U15LN8l5O-23">
          <mxGeometry y="26" width="270" height="8" as="geometry" />
        </mxCell>
        <mxCell id="VBBpCYfYI4_U15LN8l5O-25" value="+ CreateDomesticSubscription(): ISubscribtion&#xa;+ CreateEducationalSubscription(): ISubscribtion&#xa;+ CreatePremiumSubscription(): ISubscribtion&#xa;&#xa;&#xa;" style="text;strokeColor=none;fillColor=none;align=left;verticalAlign=top;spacingLeft=4;spacingRight=4;overflow=hidden;rotatable=0;points=[[0,0.5],[1,0.5]];portConstraint=eastwest;fontSize=12;fontStyle=0" vertex="1" parent="VBBpCYfYI4_U15LN8l5O-23">
          <mxGeometry y="34" width="270" height="56" as="geometry" />
        </mxCell>
        <mxCell id="VBBpCYfYI4_U15LN8l5O-33" style="edgeStyle=orthogonalEdgeStyle;rounded=0;orthogonalLoop=1;jettySize=auto;html=1;exitX=0.5;exitY=0;exitDx=0;exitDy=0;endArrow=block;endFill=0;" edge="1" parent="1" source="VBBpCYfYI4_U15LN8l5O-30" target="VBBpCYfYI4_U15LN8l5O-19">
          <mxGeometry relative="1" as="geometry" />
        </mxCell>
        <mxCell id="VBBpCYfYI4_U15LN8l5O-30" value="MobileApp" style="swimlane;fontStyle=1;align=center;verticalAlign=top;childLayout=stackLayout;horizontal=1;startSize=26;horizontalStack=0;resizeParent=1;resizeParentMax=0;resizeLast=0;collapsible=1;marginBottom=0;fontSize=12;" vertex="1" parent="1">
          <mxGeometry x="-602" y="276" width="270" height="90" as="geometry">
            <mxRectangle x="-60" y="370" width="140" height="30" as="alternateBounds" />
          </mxGeometry>
        </mxCell>
        <mxCell id="VBBpCYfYI4_U15LN8l5O-31" value="" style="line;strokeWidth=1;fillColor=none;align=left;verticalAlign=middle;spacingTop=-1;spacingLeft=3;spacingRight=3;rotatable=0;labelPosition=right;points=[];portConstraint=eastwest;strokeColor=inherit;fontSize=16;" vertex="1" parent="VBBpCYfYI4_U15LN8l5O-30">
          <mxGeometry y="26" width="270" height="8" as="geometry" />
        </mxCell>
        <mxCell id="VBBpCYfYI4_U15LN8l5O-32" value="+ CreateDomesticSubscription(): ISubscribtion&#xa;+ CreateEducationalSubscription(): ISubscribtion&#xa;+ CreatePremiumSubscription(): ISubscribtion&#xa;&#xa;&#xa;" style="text;strokeColor=none;fillColor=none;align=left;verticalAlign=top;spacingLeft=4;spacingRight=4;overflow=hidden;rotatable=0;points=[[0,0.5],[1,0.5]];portConstraint=eastwest;fontSize=12;fontStyle=0" vertex="1" parent="VBBpCYfYI4_U15LN8l5O-30">
          <mxGeometry y="34" width="270" height="56" as="geometry" />
        </mxCell>
        <mxCell id="VBBpCYfYI4_U15LN8l5O-37" style="edgeStyle=orthogonalEdgeStyle;rounded=0;orthogonalLoop=1;jettySize=auto;html=1;exitX=0.5;exitY=0;exitDx=0;exitDy=0;endArrow=block;endFill=0;" edge="1" parent="1" source="VBBpCYfYI4_U15LN8l5O-34" target="VBBpCYfYI4_U15LN8l5O-19">
          <mxGeometry relative="1" as="geometry" />
        </mxCell>
        <mxCell id="VBBpCYfYI4_U15LN8l5O-34" value="ManagerCall" style="swimlane;fontStyle=1;align=center;verticalAlign=top;childLayout=stackLayout;horizontal=1;startSize=26;horizontalStack=0;resizeParent=1;resizeParentMax=0;resizeLast=0;collapsible=1;marginBottom=0;fontSize=12;" vertex="1" parent="1">
          <mxGeometry x="-311" y="276" width="270" height="90" as="geometry">
            <mxRectangle x="-60" y="370" width="140" height="30" as="alternateBounds" />
          </mxGeometry>
        </mxCell>
        <mxCell id="VBBpCYfYI4_U15LN8l5O-35" value="" style="line;strokeWidth=1;fillColor=none;align=left;verticalAlign=middle;spacingTop=-1;spacingLeft=3;spacingRight=3;rotatable=0;labelPosition=right;points=[];portConstraint=eastwest;strokeColor=inherit;fontSize=16;" vertex="1" parent="VBBpCYfYI4_U15LN8l5O-34">
          <mxGeometry y="26" width="270" height="8" as="geometry" />
        </mxCell>
        <mxCell id="VBBpCYfYI4_U15LN8l5O-36" value="+ CreateDomesticSubscription(): ISubscribtion&#xa;+ CreateEducationalSubscription(): ISubscribtion&#xa;+ CreatePremiumSubscription(): ISubscribtion&#xa;&#xa;&#xa;" style="text;strokeColor=none;fillColor=none;align=left;verticalAlign=top;spacingLeft=4;spacingRight=4;overflow=hidden;rotatable=0;points=[[0,0.5],[1,0.5]];portConstraint=eastwest;fontSize=12;fontStyle=0" vertex="1" parent="VBBpCYfYI4_U15LN8l5O-34">
          <mxGeometry y="34" width="270" height="56" as="geometry" />
        </mxCell>
      </root>
    </mxGraphModel>
  </diagram>
</mxfile>
